<?xml version="1.0" encoding="UTF-8"?><svg id="Layer_2" xmlns="http://www.w3.org/2000/svg" viewBox="0 0 2156.45 455.27"><defs><style>.cls-1{fill:#fbfaf8;}</style></defs><g id="Layer_2-2"><g id="Layer_2-2"><g id="artwork"><path class="cls-1" d="M1370.54,153.05c10.2.9,19.25,1.71,28.3,2.37,17.21,1.39,34.34,2.53,51.55,4,15.01,1.31,30.02,2.28,44.95,4.4,11.09,1.55,22.02,4.4,32.87,7.18,5.06,1.31,8.32,9.87,5.87,14.44-.65,1.14-2.77,2.12-4.24,2.12-4.89,0-9.79-.24-14.6-.98-15.25-2.28-30.43-5.14-45.76-7.26-12.72-1.71-25.61-2.85-38.42-3.92-17.7-1.47-35.4-2.77-53.18-3.92-7.02-.49-14.11-.41-21.21-.24-1.39,0-3.18.98-4.08,2.04-12.97,15.01-26.02,29.94-38.75,45.19-9.38,11.26-18.43,22.84-27.41,34.42-3.02,3.83-5.38,8.16-7.91,12.32-.65,1.06-.9,2.37-1.31,3.51.33.33.65.65.98,1.06,4.57-2.45,9.22-4.65,13.54-7.42,16.15-10.28,32.22-20.72,48.37-31.08,12.24-7.83,25.61-12.97,39.56-16.97,5.3-1.55,8.48.16,10.77,5.22,3.26,7.18,2.69,12.4-3.26,17.62-12.72,11.26-26.02,21.78-38.66,33.12-11.09,9.95-21.78,20.47-32.38,30.92-6.36,6.28-10.44,14.19-13.7,22.43-5.47,13.87,4,28.3,18.92,28.14,11.26-.08,22.51-.82,33.61-2.37,14.6-2.04,29.12-4.73,43.56-7.91,17.05-3.75,33.85-8.73,50.98-12.32,24.55-5.14,49.19-9.71,73.82-14.03,19.98-3.51,40.05-6.61,60.2-9.54,14.03-2.04,28.22-3.51,42.33-5.06,26.43-2.94,53.02-4.24,79.69-3.83,16.97.24,33.93,1.22,50.82,2.45,16.07,1.14,32.14,2.77,48.13,4.73,31.24,3.75,62.24,8.97,92.5,17.86,14.93,4.4,30.34,7.42,45.11,12.32,24.96,8.32,49.92,16.89,74.31,26.76,24.88,10.11,48.62,22.84,71.86,36.46,16.88,9.87,33.93,19.41,50.82,29.28,4.08,2.37,7.99,5.22,11.75,7.99,6.53,4.89,7.34,10.11,2.53,16.8-.98,1.39-2.37,2.53-3.67,3.92-1.31-.98-2.45-1.71-3.51-2.61-15.58-13.62-33.2-23.98-51.06-34.1-11.83-6.61-23.66-13.38-35.89-19.17-30.92-14.68-62.32-28.14-95.11-38.17-17.46-5.38-34.91-11.01-52.69-15.42-21.05-5.3-42.25-10.03-63.54-13.87-21.86-4-43.88-6.77-65.91-9.79-17.62-2.37-35.24-4.73-52.94-6.2-21.94-1.79-43.97-.9-65.91,1.14-12.15,1.14-24.39,1.47-36.54,2.61-14.19,1.39-28.3,2.85-42.42,5.06-18.6,2.85-37.2,6.2-55.63,9.79-26.18,5.14-52.37,10.52-78.47,16.07-20.39,4.32-40.62,9.63-61.18,13.46-17.29,3.18-34.91,4.65-52.29,7.26-15.34,2.28-25.69-5.63-34.59-16.31-9.14-11.09-11.83-23.66-8.73-37.77,3.18-14.44,11.99-25.69,20.31-37.28,3.75-5.22,7.83-10.03,11.75-15.09.73-.98,1.39-2.12,2.04-3.18-.33-.41-.57-.82-.9-1.22-1.88.9-3.83,1.71-5.63,2.77-16.97,10.03-31.73,22.84-46.17,36.05-11.09,10.2-21.94,20.72-33.04,31-2.94,2.77-6.28,5.22-9.63,7.42-3.1,1.96-6.61,2.04-9.54-.33-3.02-2.45-4-6.12-2.77-9.63,2.12-6.12,4.49-12.15,7.26-18.03,2.28-4.81,5.3-9.14,7.83-13.79.65-1.22.98-2.61,1.88-4.89-1.79.73-2.61.98-3.34,1.47-26.43,16.64-52.86,33.36-79.37,49.92-4.98,3.1-10.52,6.12-16.23,1.96-2.53-1.79-4.89-4.49-6.04-7.26-1.55-3.92-2.12-8.4-2.69-12.64-.41-3.18,0-6.53,0-9.79-.16-4.57-1.63-5.55-5.47-3.26-8.73,5.22-17.37,10.6-26.1,15.91-2.2,1.31-4.32,2.85-6.61,4-8.97,4.4-16.23,1.63-20.07-7.59-1.96-4.65-1.88-4.49-6.53-2.2-14.76,7.26-29.53,14.44-44.46,21.37-7.34,3.43-14.36,1.63-19.25-4.81-1.71-2.28-2.45-5.63-2.77-8.56-.57-4.4-.73-4.4-4.89-2.85-14.6,5.55-29.04,11.5-43.97,15.91-16.07,4.81-29.45-.82-39.15-14.52-2.28-3.18-4.24-3.43-7.42-1.63-12.97,7.34-27,11.99-41.27,16.15-12.81,3.75-23.57.57-32.3-9.46-1.88-2.12-3.1-2.2-5.3-.49-9.79,7.26-19.66,14.52-29.69,21.53-5.55,3.83-11.83,6.04-18.76,5.71-6.61-.33-11.5-3.26-15.01-8.97-8.24-13.05-8.89-26.59-4.24-41.03,5.38-16.97,15.09-31.49,25.12-45.84,4-5.71,8.24-11.09,11.99-16.97,1.39-2.2,3.02-6.12,2.04-7.5-2.12-2.85-4.89.24-7.02,1.55-15.34,9.3-27.9,21.94-40.62,34.42-14.68,14.52-27.16,30.67-39.64,46.98-1.96,2.61-4.16,5.06-6.36,7.42-1.96,2.2-4.08,2.2-6.36.16-4.81-4.24-6.44-12.81-3.26-20.07,2.2-4.89,5.06-9.54,7.67-14.27.57-1.06,1.22-2.12,1.14-3.83-.57.24-1.22.41-1.71.73-18.19,11.58-36.3,23.33-54.65,34.83-18.68,11.66-37.44,23.17-56.2,34.67-15.99,9.79-31.65,20.15-48.04,29.12-19.74,10.77-39.81,21.21-60.44,30.18-12.4,5.38-26.02,8.56-40.13,5.14-16.64-4-30.59-19.58-33.12-36.46-1.96-13.13,2.04-24.96,6.85-36.63,16.15-38.83,39.81-72.92,67.13-104.49,22.51-26.02,47.47-49.76,72.43-73.41,15.34-14.52,30.02-29.53,45.43-43.88,31.98-29.69,65.01-58.32,101.47-82.39,24.47-16.15,50.17-30.43,75.62-44.95,5.06-2.85,11.66-4.65,17.46-4.4,10.44.41,17.21,8.32,18.76,19.74.82,6.44.9,12.97,1.71,19.5.33,2.69,1.22,5.55,2.69,7.91,2.12,3.34,2.04,6.12-.65,8.81-5.38,5.38-10.77,10.77-16.31,15.91-23.49,21.62-44.54,45.27-62.24,72.03-3.67,5.55-7.91,10.69-12.32,15.66-3.83,4.4-6.77,4.81-10.28,2.53-2.94-1.96-4.16-6.44-2.04-10.69,4-7.99,8.48-15.74,12.97-23.49,12.48-21.62,29.04-39.89,46.17-57.83,6.2-6.53,11.5-14.03,16.64-21.45,3.67-5.38,4.24-11.91,3.75-18.43-.33-4.89-1.88-6.04-6.12-3.59-9.46,5.3-19.25,10.28-28.14,16.48-27.41,19.17-55.06,38.01-81.41,58.49-24.96,19.41-48.7,40.46-72.6,61.18-17.29,15.01-34.59,30.26-50.9,46.33-21.7,21.29-43.15,42.99-63.62,65.42-10.03,11.09-18.11,24.06-26.27,36.71-11.09,17.21-21.7,34.75-31.89,52.53-6.2,10.77-9.22,22.84-10.52,35.32-.9,8.48,6.12,16.89,14.93,16.72,8.56-.16,16.31-2.85,23.74-6.61,11.5-5.79,22.76-12.07,34.01-18.35,24.96-13.87,49.84-27.73,74.64-41.85,31.08-17.7,61.83-35.73,91.6-55.55,29.53-19.58,57.75-40.79,83.61-64.85,14.68-13.7,27.9-28.96,41.11-44.13,19.5-22.51,38.66-45.19,57.34-68.36,13.38-16.64,24.96-34.5,34.01-54,.73-1.55,2.69-2.61,4.08-3.83,1.31,1.63,3.34,3.02,3.83,4.81,2.04,7.83,1.39,15.58-1.22,23.17-5.14,14.93-13.7,27.98-23,40.62-21.05,28.79-44.21,55.79-68.03,82.3-.98,1.06-1.71,2.45-2.53,3.67l.9.9c1.88-1.22,3.59-2.53,5.55-3.59,7.34-4.08,14.52-8.32,22.11-11.91,5.55-2.69,10.77-.65,14.85,3.43,4.4,4.32,3.59,9.87,1.06,14.44-5.55,9.95-11.5,19.66-17.86,29.12-15.58,23-30.92,46.09-39.64,72.76-1.31,4.08-1.47,8.73-1.39,13.13.08,3.59,2.85,5.14,6.44,4.32,1.96-.41,4.08-.98,5.71-1.96,13.87-8.16,27.16-17.37,38.09-29.12,5.47-5.87,9.05-13.54,12.89-20.64,15.91-29.28,37.77-53.27,64.2-73.33,2.85-2.2,6.28-4.81,10.03-2.45,4.65,2.94,7.42,7.5,7.99,13.05,1.31,12.48-4.57,22.35-11.83,31.57-12.97,16.64-26.67,32.63-42.82,46.33-8.56,7.34-17.46,14.36-26.18,21.45-3.92,3.18-3.83,6.12.98,7.5,3.59,1.06,7.99,1.39,11.5.33,11.18-3.34,22.02-7.5,33.04-11.34,2.94-1.06,5.87-2.12,8.81-3.26,6.85-2.45,11.99-6.44,15.5-13.21,5.47-10.44,11.42-20.72,18.11-30.51,10.69-15.5,21.78-30.83,33.36-45.68,4.08-5.22,10.03-9.05,15.42-13.13,11.5-8.56,23.33.73,25.61,10.93,2.04,8.97.16,17.78-4.08,25.61-8.16,14.85-17.86,28.63-31.65,38.91-12.56,9.3-25.45,18.11-38.34,26.92-3.1,2.12-4.98,4.4-3.92,7.99,1.06,3.67,3.83,5.71,7.75,4.98,6.2-1.14,12.48-2.37,18.52-4.24,12.97-3.92,25.45-9.05,37.69-15.17,12.64-6.36,23.17-14.76,30.59-26.67,11.99-19.25,26.35-36.54,41.11-53.67,11.09-12.81,22.68-25.21,34.01-37.85.41-.49.73-1.06,1.88-2.94-5.22.33-9.38.33-13.46.98-20.07,3.18-40.13,6.61-60.2,9.87-6.28.98-12.56,1.31-17.37-4.16-1.14-1.31-2.2-2.77-2.94-4.4-2.04-4.81-.98-7.18,4.08-8.08,11.91-1.96,23.82-3.59,35.73-5.47,25.12-4,50.25-8.48,75.45-11.75,7.83-.98,13.21-4.49,18.68-9.22,13.54-11.66,25.29-25.04,36.71-38.75.9-1.06,1.63-2.28,2.69-3.02,1.55-1.06,4.24-2.85,4.89-2.37,1.71,1.31,3.34,3.59,3.75,5.71,1.06,5.14-1.71,9.54-4.4,13.62-5.14,7.83-10.69,15.42-16.07,23.08-.73.98-1.22,2.2-2.04,3.83,3.59,0,6.36.08,9.22,0,29.61-1.22,59.06-3.83,88.75-3.26,25.94.49,51.88-.41,77.82.49,7.59.24,12.07-2.12,16.48-7.34,8.16-9.63,16.56-19.09,24.88-28.55,2.28-2.61,4.73-5.3,8.56-4,2.45.82,4.98,8.16,3.67,11.34-1.63,4.08-3.75,8.08-6.2,11.75-2.85,4.24-6.36,8.08-9.63,12.15-.82.98-1.39,2.12-2.69,4.32h0l.16.41h0ZM1330.98,171.89c-1.88-.65-2.69-1.14-3.59-1.14-9.3-.57-18.68-1.71-28.06-1.55-21.7.49-43.4,1.47-65.09,2.53-12.32.57-24.63,1.47-36.95,2.61-19.58,1.88-39.15,4-58.65,6.28-3.1.33-6.69,1.06-8.97,2.85-10.77,8.73-21.94,17.13-31.57,27-16.56,17.05-32.46,34.67-47.72,52.94-9.46,11.34-17.7,23.74-25.45,36.3-3.51,5.79-4.89,13.05-6.44,19.9-.82,3.75,1.71,5.47,5.55,4.49,2.37-.57,4.73-1.31,6.85-2.45,11.01-5.87,22.02-11.75,32.87-17.86,5.47-3.02,11.18-5.87,15.91-9.79,21.62-17.7,42.99-35.81,64.44-53.67,8.56-7.1,17.95-12.81,28.71-15.74,7.26-1.96,10.44-.65,14.93,5.38.65.9,2.69,1.88,3.43,1.47,3.67-1.88,5.63.08,7.42,2.77,3.26,4.89,4.24,9.95.73,15.17-1.96,2.94-3.83,5.95-6.04,8.65-8.81,10.69-17.95,21.13-26.67,31.89-7.02,8.65-14.03,17.29-20.56,26.35-1.55,2.2-2.77,6.77-1.55,8.4,2.37,3.26,6.36,1.22,9.22-.49,12.24-7.34,24.47-14.68,36.38-22.43,12.15-7.91,23.98-16.4,36.05-24.47,21.29-14.19,39.64-31.65,56.77-50.57,11.58-12.81,22.84-25.86,34.18-38.83,4.49-5.06,8.81-10.2,13.79-15.99h.08ZM936.42,288.21c1.14,0,1.63.24,1.88,0,2.77-1.96,5.55-3.83,8.24-5.87,15.42-11.75,29.12-25.21,39.4-41.76,2.2-3.59,3.43-7.91,4.32-12.07.73-3.75-1.31-5.06-5.06-4.32-6.12,1.14-9.71,5.79-13.46,9.95-13.79,15.25-24.39,32.79-34.5,50.57-.49.82-.49,1.96-.82,3.34h0v.16h0ZM1099.15,301.51c.16.33.41.73.57,1.06,1.88-.33,3.83-.41,5.71-.9,8.89-2.37,15.58-8.4,22.68-13.7,18.03-13.62,33.85-29.61,49.76-45.52,15.91-15.91,1.47-1.71,2.28-2.61-.16-.41-.33-.9-.49-1.31-2.2.41-4.73.16-6.53,1.22-6.53,3.83-12.97,7.83-19.01,12.24-18.92,13.95-36.54,29.45-52.61,46.58-.82.9-1.55,1.96-2.28,2.94h-.08ZM858.2,282.5c.41.24.73.41,1.14.65.98-.65,1.96-1.31,2.85-2.04,12.64-10.2,24.06-21.53,33.69-34.59,3.02-4.16,5.55-8.65,8.16-13.05.41-.82-.16-2.2-.33-3.26-.98.16-2.04.24-3.02.57-.49.16-.9.65-1.31.98-15.66,13.62-29.53,28.71-39.81,46.9-.65,1.22-.98,2.61-1.39,3.92h0v-.08Z"/></g><path class="cls-1" d="M0,4.3h41.3c10.92,0,19.07,3.16,24.59,8.81,5.26,5.39,8.42,12.76,8.42,21.44,0,17.75-11.7,29.72-31.43,29.72h-23.15v34.06H0V4.3ZM19.73,48.75h19.73c10,0,15.26-5.52,15.26-14.07s-5.52-13.81-14.99-13.81h-19.99v27.88Z"/><path class="cls-1" d="M83.38,4.3h43.14c18.15,0,30.25,10.52,30.25,26.17,0,11.05-5.13,19.46-17.23,22.75v.39c8.68,2.5,13.15,7.5,14.33,18.94,1.32,13.28.79,23.41,4.08,24.86v.92h-18.28c-2.37-1.05-2.63-11.57-3.42-21.7-.79-10.26-6.58-16.04-18.41-16.04h-15.39v37.75h-19.07V4.3ZM102.45,45.86h20.25c10.39,0,15.52-5.39,15.52-12.89s-4.87-13.28-14.99-13.28h-20.78v26.17Z"/><path class="cls-1" d="M165.48,51.52c0-28.14,17.62-49.06,45.37-49.06s45.24,20.91,45.24,49.06-17.49,48.92-45.24,48.92-45.37-20.78-45.37-48.92ZM236.63,51.52c0-18.81-8.42-33.41-25.65-33.41s-26.04,14.6-26.04,33.41,8.81,33.27,26.04,33.27,25.65-14.6,25.65-33.27Z"/><path class="cls-1" d="M262.91,72.69v-9.34h17.1v8.15c0,9.47,4.34,13.15,12.1,13.15s11.31-4.6,11.31-12.89V4.3h19.07v67.6c0,16.04-9.34,28.14-28.8,28.14s-30.77-8.94-30.77-27.35Z"/><path class="cls-1" d="M338.36,4.3h69.18v16.04h-50.11v21.04h43.93v15.65h-43.93v25.38h50.5v15.91h-69.57V4.3Z"/><path class="cls-1" d="M414.54,51.65c0-27.88,17.36-49.19,45.11-49.19,23.15,0,36.82,13.81,38.8,31.7h-18.94c-1.71-9.47-8.81-15.65-19.86-15.65-17.36,0-25.65,14.47-25.65,33.14s10,33.01,25.78,33.01c11.18,0,19.07-6.71,20.25-16.57h18.67c-.53,8.29-4.08,16.31-10.39,22.23-6.44,6.05-15.52,10-28.54,10-26.43,0-45.24-20.38-45.24-48.66Z"/><path class="cls-1" d="M503.89,4.3h75.62v16.04h-28.28v77.99h-19.07V20.35h-28.28V4.3Z"/></g></g></svg>