<?xml version="1.0" encoding="UTF-8"?>
<svg id="Layer_2" xmlns="http://www.w3.org/2000/svg" version="1.1" viewBox="0 0 2146.4 558">
  <!-- Generator: Adobe Illustrator 29.2.1, SVG Export Plug-In . SVG Version: 2.1.0 Build 116)  -->
  <defs>
    <style>
      .st0 {
        fill: #fbfaf8;
      }
    </style>
  </defs>
  <g id="artwork">
    <path class="st0" d="M1183.1,187.3c12.5,1.1,23.6,2.1,34.7,2.9,21.1,1.7,42.1,3.1,63.2,4.9,18.4,1.6,36.8,2.8,55.1,5.4,13.6,1.9,27,5.4,40.3,8.8,6.2,1.6,10.2,12.1,7.2,17.7-.8,1.4-3.4,2.6-5.2,2.6-6,0-12-.3-17.9-1.2-18.7-2.8-37.3-6.3-56.1-8.9-15.6-2.1-31.4-3.5-47.1-4.8-21.7-1.8-43.4-3.4-65.2-4.8-8.6-.6-17.3-.5-26-.3-1.7,0-3.9,1.2-5,2.5-15.9,18.4-31.9,36.7-47.5,55.4-11.5,13.8-22.6,28-33.6,42.2-3.7,4.7-6.6,10-9.7,15.1-.8,1.3-1.1,2.9-1.6,4.3.4.4.8.8,1.2,1.3,5.6-3,11.3-5.7,16.6-9.1,19.8-12.6,39.5-25.4,59.3-38.1,15-9.6,31.4-15.9,48.5-20.8,6.5-1.9,10.4.2,13.2,6.4,4,8.8,3.3,15.2-4,21.6-15.6,13.8-31.9,26.7-47.4,40.6-13.6,12.2-26.7,25.1-39.7,37.9-7.8,7.7-12.8,17.4-16.8,27.5-6.7,17,4.9,34.7,23.2,34.5,13.8-.1,27.6-1,41.2-2.9,17.9-2.5,35.7-5.8,53.4-9.7,20.9-4.6,41.5-10.7,62.5-15.1,30.1-6.3,60.3-11.9,90.5-17.2,24.5-4.3,49.1-8.1,73.8-11.7,17.2-2.5,34.6-4.3,51.9-6.2,32.4-3.6,65-5.2,97.7-4.7,20.8.3,41.6,1.5,62.3,3,19.7,1.4,39.4,3.4,59,5.8,38.3,4.6,76.3,11,113.4,21.9,18.3,5.4,37.2,9.1,55.3,15.1,30.6,10.2,61.2,20.7,91.1,32.8,30.5,12.4,59.6,28,88.1,44.7,20.7,12.1,41.6,23.8,62.3,35.9,5,2.9,9.8,6.4,14.4,9.8,8,6,9,12.4,3.1,20.6-1.2,1.7-2.9,3.1-4.5,4.8-1.6-1.2-3-2.1-4.3-3.2-19.1-16.7-40.7-29.4-62.6-41.8-14.5-8.1-29-16.4-44-23.5-37.9-18-76.4-34.5-116.6-46.8-21.4-6.6-42.8-13.5-64.6-18.9-25.8-6.5-51.8-12.3-77.9-17-26.8-4.9-53.8-8.3-80.8-12-21.6-2.9-43.2-5.8-64.9-7.6-26.9-2.2-53.9-1.1-80.8,1.4-14.9,1.4-29.9,1.8-44.8,3.2-17.4,1.7-34.7,3.5-52,6.2-22.8,3.5-45.6,7.6-68.2,12-32.1,6.3-64.2,12.9-96.2,19.7-25,5.3-49.8,11.8-75,16.5-21.2,3.9-42.8,5.7-64.1,8.9-18.8,2.8-31.5-6.9-42.4-20-11.2-13.6-14.5-29-10.7-46.3,3.9-17.7,14.7-31.5,24.9-45.7,4.6-6.4,9.6-12.3,14.4-18.5.9-1.2,1.7-2.6,2.5-3.9-.4-.5-.7-1-1.1-1.5-2.3,1.1-4.7,2.1-6.9,3.4-20.8,12.3-38.9,28-56.6,44.2-13.6,12.5-26.9,25.4-40.5,38-3.6,3.4-7.7,6.4-11.8,9.1-3.8,2.4-8.1,2.5-11.7-.4-3.7-3-4.9-7.5-3.4-11.8,2.6-7.5,5.5-14.9,8.9-22.1,2.8-5.9,6.5-11.2,9.6-16.9.8-1.5,1.2-3.2,2.3-6-2.2.9-3.2,1.2-4.1,1.8-32.4,20.4-64.8,40.9-97.3,61.2-6.1,3.8-12.9,7.5-19.9,2.4-3.1-2.2-6-5.5-7.4-8.9-1.9-4.8-2.6-10.3-3.3-15.5-.5-3.9,0-8,0-12-.2-5.6-2-6.8-6.7-4-10.7,6.4-21.3,13-32,19.5-2.7,1.6-5.3,3.5-8.1,4.9-11,5.4-19.9,2-24.6-9.3-2.4-5.7-2.3-5.5-8-2.7-18.1,8.9-36.2,17.7-54.5,26.2-9,4.2-17.6,2-23.6-5.9-2.1-2.8-3-6.9-3.4-10.5-.7-5.4-.9-5.4-6-3.5-17.9,6.8-35.6,14.1-53.9,19.5-19.7,5.9-36.1-1-48-17.8-2.8-3.9-5.2-4.2-9.1-2-15.9,9-33.1,14.7-50.6,19.8-15.7,4.6-28.9.7-39.6-11.6-2.3-2.6-3.8-2.7-6.5-.6-12,8.9-24.1,17.8-36.4,26.4-6.8,4.7-14.5,7.4-23,7-8.1-.4-14.1-4-18.4-11-10.1-16-10.9-32.6-5.2-50.3,6.6-20.8,18.5-38.6,30.8-56.2,4.9-7,10.1-13.6,14.7-20.8,1.7-2.7,3.7-7.5,2.5-9.2-2.6-3.5-6,.3-8.6,1.9-18.8,11.4-34.2,26.9-49.8,42.2-18,17.8-33.3,37.6-48.6,57.6-2.4,3.2-5.1,6.2-7.8,9.1-2.4,2.7-5,2.7-7.8.2-5.9-5.2-7.9-15.7-4-24.6,2.7-6,6.2-11.7,9.4-17.5.7-1.3,1.5-2.6,1.4-4.7-.7.3-1.5.5-2.1.9-22.3,14.2-44.5,28.6-67,42.7-22.9,14.3-45.9,28.4-68.9,42.5-19.6,12-38.8,24.7-58.9,35.7-24.2,13.2-48.8,26-74.1,37-15.2,6.6-31.9,10.5-49.2,6.3-20.4-4.9-37.5-24-40.6-44.7-2.4-16.1,2.5-30.6,8.4-44.9,19.8-47.6,48.8-89.4,82.3-128.1,27.6-31.9,58.2-61,88.8-90,18.8-17.8,36.8-36.2,55.7-53.8,39.2-36.4,79.7-71.5,124.4-101,30-19.8,61.5-37.3,92.7-55.1,6.2-3.5,14.3-5.7,21.4-5.4,12.8.5,21.1,10.2,23,24.2,1,7.9,1.1,15.9,2.1,23.9.4,3.3,1.5,6.8,3.3,9.7,2.6,4.1,2.5,7.5-.8,10.8-6.6,6.6-13.2,13.2-20,19.5-28.8,26.5-54.6,55.5-76.3,88.3-4.5,6.8-9.7,13.1-15.1,19.2-4.7,5.4-8.3,5.9-12.6,3.1-3.6-2.4-5.1-7.9-2.5-13.1,4.9-9.8,10.4-19.3,15.9-28.8,15.3-26.5,35.6-48.9,56.6-70.9,7.6-8,14.1-17.2,20.4-26.3,4.5-6.6,5.2-14.6,4.6-22.6-.4-6-2.3-7.4-7.5-4.4-11.6,6.5-23.6,12.6-34.5,20.2-33.6,23.5-67.5,46.6-99.8,71.7-30.6,23.8-59.7,49.6-89,75-21.2,18.4-42.4,37.1-62.4,56.8-26.6,26.1-52.9,52.7-78,80.2-12.3,13.6-22.2,29.5-32.2,45-13.6,21.1-26.6,42.6-39.1,64.4-7.6,13.2-11.3,28-12.9,43.3-1.1,10.4,7.5,20.7,18.3,20.5,10.5-.2,20-3.5,29.1-8.1,14.1-7.1,27.9-14.8,41.7-22.5,30.6-17,61.1-34,91.5-51.3,38.1-21.7,75.8-43.8,112.3-68.1,36.2-24,70.8-50,102.5-79.5,18-16.8,34.2-35.5,50.4-54.1,23.9-27.6,47.4-55.4,70.3-83.8,16.4-20.4,30.6-42.3,41.7-66.2.9-1.9,3.3-3.2,5-4.7,1.6,2,4.1,3.7,4.7,5.9,2.5,9.6,1.7,19.1-1.5,28.4-6.3,18.3-16.8,34.3-28.2,49.8-25.8,35.3-54.2,68.4-83.4,100.9-1.2,1.3-2.1,3-3.1,4.5.4.4.7.7,1.1,1.1,2.3-1.5,4.4-3.1,6.8-4.4,9-5,17.8-10.2,27.1-14.6,6.8-3.3,13.2-.8,18.2,4.2,5.4,5.3,4.4,12.1,1.3,17.7-6.8,12.2-14.1,24.1-21.9,35.7-19.1,28.2-37.9,56.5-48.6,89.2-1.6,5-1.8,10.7-1.7,16.1.1,4.4,3.5,6.3,7.9,5.3,2.4-.5,5-1.2,7-2.4,17-10,33.3-21.3,46.7-35.7,6.7-7.2,11.1-16.6,15.8-25.3,19.5-35.9,46.3-65.3,78.7-89.9,3.5-2.7,7.7-5.9,12.3-3,5.7,3.6,9.1,9.2,9.8,16,1.6,15.3-5.6,27.4-14.5,38.7-15.9,20.4-32.7,40-52.5,56.8-10.5,9-21.4,17.6-32.1,26.3-4.8,3.9-4.7,7.5,1.2,9.2,4.4,1.3,9.8,1.7,14.1.4,13.7-4.1,27-9.2,40.5-13.9,3.6-1.3,7.2-2.6,10.8-4,8.4-3,14.7-7.9,19-16.2,6.7-12.8,14-25.4,22.2-37.4,13.1-19,26.7-37.8,40.9-56,5-6.4,12.3-11.1,18.9-16.1,14.1-10.5,28.6.9,31.4,13.4,2.5,11,.2,21.8-5,31.4-10,18.2-21.9,35.1-38.8,47.7-15.4,11.4-31.2,22.2-47,33-3.8,2.6-6.1,5.4-4.8,9.8,1.3,4.5,4.7,7,9.5,6.1,7.6-1.4,15.3-2.9,22.7-5.2,15.9-4.8,31.2-11.1,46.2-18.6,15.5-7.8,28.4-18.1,37.5-32.7,14.7-23.6,32.3-44.8,50.4-65.8,13.6-15.7,27.8-30.9,41.7-46.4.5-.6.9-1.3,2.3-3.6-6.4.4-11.5.4-16.5,1.2-24.6,3.9-49.2,8.1-73.8,12.1-7.7,1.2-15.4,1.6-21.3-5.1-1.4-1.6-2.7-3.4-3.6-5.4-2.5-5.9-1.2-8.8,5-9.9,14.6-2.4,29.2-4.4,43.8-6.7,30.8-4.9,61.6-10.4,92.5-14.4,9.6-1.2,16.2-5.5,22.9-11.3,16.6-14.3,31-30.7,45-47.5,1.1-1.3,2-2.8,3.3-3.7,1.9-1.3,5.2-3.5,6-2.9,2.1,1.6,4.1,4.4,4.6,7,1.3,6.3-2.1,11.7-5.4,16.7-6.3,9.6-13.1,18.9-19.7,28.3-.9,1.2-1.5,2.7-2.5,4.7,4.4,0,7.8.1,11.3,0,36.3-1.5,72.4-4.7,108.8-4,31.8.6,63.6-.5,95.4.6,9.3.3,14.8-2.6,20.2-9,10-11.8,20.3-23.4,30.5-35,2.8-3.2,5.8-6.5,10.5-4.9,3,1,6.1,10,4.5,13.9-2,5-4.6,9.9-7.6,14.4-3.5,5.2-7.8,9.9-11.8,14.9-1,1.2-1.7,2.6-3.3,5.3h0ZM1134.6,210.4c-2.3-.8-3.3-1.4-4.4-1.4-11.4-.7-22.9-2.1-34.4-1.9-26.6.6-53.2,1.8-79.8,3.1-15.1.7-30.2,1.8-45.3,3.2-24,2.3-48,4.9-71.9,7.7-3.8.4-8.2,1.3-11,3.5-13.2,10.7-26.9,21-38.7,33.1-20.3,20.9-39.8,42.5-58.5,64.9-11.6,13.9-21.7,29.1-31.2,44.5-4.3,7.1-6,16-7.9,24.4-1,4.6,2.1,6.7,6.8,5.5,2.9-.7,5.8-1.6,8.4-3,13.5-7.2,27-14.4,40.3-21.9,6.7-3.7,13.7-7.2,19.5-12,26.5-21.7,52.7-43.9,79-65.8,10.5-8.7,22-15.7,35.2-19.3,8.9-2.4,12.8-.8,18.3,6.6.8,1.1,3.3,2.3,4.2,1.8,4.5-2.3,6.9.1,9.1,3.4,4,6,5.2,12.2.9,18.6-2.4,3.6-4.7,7.3-7.4,10.6-10.8,13.1-22,25.9-32.7,39.1-8.6,10.6-17.2,21.2-25.2,32.3-1.9,2.7-3.4,8.3-1.9,10.3,2.9,4,7.8,1.5,11.3-.6,15-9,30-18,44.6-27.5,14.9-9.7,29.4-20.1,44.2-30,26.1-17.4,48.6-38.8,69.6-62,14.2-15.7,28-31.7,41.9-47.6,5.5-6.2,10.8-12.5,16.9-19.6h0ZM650.9,353c1.4,0,2,.3,2.3,0,3.4-2.4,6.8-4.7,10.1-7.2,18.9-14.4,35.7-30.9,48.3-51.2,2.7-4.4,4.2-9.7,5.3-14.8.9-4.6-1.6-6.2-6.2-5.3-7.5,1.4-11.9,7.1-16.5,12.2-16.9,18.7-29.9,40.2-42.3,62-.6,1-.6,2.4-1,4.1h0ZM850.4,369.3c.2.4.5.9.7,1.3,2.3-.4,4.7-.5,7-1.1,10.9-2.9,19.1-10.3,27.8-16.8,22.1-16.7,41.5-36.3,61-55.8,1-1,1.8-2.1,2.8-3.2-.2-.5-.4-1.1-.6-1.6-2.7.5-5.8.2-8,1.5-8,4.7-15.9,9.6-23.3,15-23.2,17.1-44.8,36.1-64.5,57.1-1,1.1-1.9,2.4-2.8,3.6h0ZM555,346c.5.3.9.5,1.4.8,1.2-.8,2.4-1.6,3.5-2.5,15.5-12.5,29.5-26.4,41.3-42.4,3.7-5.1,6.8-10.6,10-16,.5-1-.2-2.7-.4-4-1.2.2-2.5.3-3.7.7-.6.2-1.1.8-1.6,1.2-19.2,16.7-36.2,35.2-48.8,57.5-.8,1.5-1.2,3.2-1.7,4.8h0Z"/>
  </g>
</svg>