<?xml version="1.0" encoding="UTF-8"?>
<svg id="Layer_2" xmlns="http://www.w3.org/2000/svg" version="1.1" viewBox="0 0 2146.4 558.1">
  <!-- Generator: Adobe Illustrator 29.2.1, SVG Export Plug-In . SVG Version: 2.1.0 Build 116)  -->
  <defs>
    <style>
      .st0, .st1 {
        fill: #fbfaf8;
      }

      .st1 {
        font-family: NHaasGroteskDSPro-65Md, 'Neue Haas Grotesk Display Pro';
        font-size: 187.9px;
        font-weight: 500;
        letter-spacing: 0em;
      }
    </style>
  </defs>
  <g id="Layer_2-2">
    <g id="artwork">
      <path class="st0" d="M1391.4-594.6c10.2.9,19.3,1.7,28.3,2.4,17.2,1.4,34.3,2.5,51.6,4,15,1.3,30,2.3,44.9,4.4,11.1,1.5,22,4.4,32.9,7.2,5.1,1.3,8.3,9.9,5.9,14.4-.7,1.1-2.8,2.1-4.2,2.1-4.9,0-9.8-.2-14.6-1-15.3-2.3-30.4-5.1-45.8-7.3-12.7-1.7-25.6-2.9-38.4-3.9-17.7-1.5-35.4-2.8-53.2-3.9-7-.5-14.1-.4-21.2-.2-1.4,0-3.2,1-4.1,2-13,15-26,29.9-38.7,45.2-9.4,11.3-18.4,22.8-27.4,34.4-3,3.8-5.4,8.2-7.9,12.3-.7,1.1-.9,2.4-1.3,3.5.3.3.7.7,1,1.1,4.6-2.4,9.2-4.6,13.5-7.4,16.2-10.3,32.2-20.7,48.4-31.1,12.2-7.8,25.6-13,39.6-17,5.3-1.5,8.5.2,10.8,5.2,3.3,7.2,2.7,12.4-3.3,17.6-12.7,11.3-26,21.8-38.7,33.1-11.1,10-21.8,20.5-32.4,30.9-6.4,6.3-10.4,14.2-13.7,22.4-5.5,13.9,4,28.3,18.9,28.1,11.3,0,22.5-.8,33.6-2.4,14.6-2,29.1-4.7,43.6-7.9,17-3.8,33.9-8.7,51-12.3,24.6-5.1,49.2-9.7,73.8-14,20-3.5,40.1-6.6,60.2-9.5,14-2,28.2-3.5,42.3-5.1,26.4-2.9,53-4.2,79.7-3.8,17,.2,33.9,1.2,50.8,2.4,16.1,1.1,32.1,2.8,48.1,4.7,31.2,3.8,62.2,9,92.5,17.9,14.9,4.4,30.3,7.4,45.1,12.3,25,8.3,49.9,16.9,74.3,26.8,24.9,10.1,48.6,22.8,71.9,36.5,16.9,9.9,33.9,19.4,50.8,29.3,4.1,2.4,8,5.2,11.7,8,6.5,4.9,7.3,10.1,2.5,16.8-1,1.4-2.4,2.5-3.7,3.9-1.3-1-2.4-1.7-3.5-2.6-15.6-13.6-33.2-24-51.1-34.1-11.8-6.6-23.7-13.4-35.9-19.2-30.9-14.7-62.3-28.1-95.1-38.2-17.5-5.4-34.9-11-52.7-15.4-21-5.3-42.3-10-63.5-13.9-21.9-4-43.9-6.8-65.9-9.8-17.6-2.4-35.2-4.7-52.9-6.2-21.9-1.8-44-.9-65.9,1.1-12.2,1.1-24.4,1.5-36.5,2.6-14.2,1.4-28.3,2.9-42.4,5.1-18.6,2.9-37.2,6.2-55.6,9.8-26.2,5.1-52.4,10.5-78.5,16.1-20.4,4.3-40.6,9.6-61.2,13.5-17.3,3.2-34.9,4.6-52.3,7.3-15.3,2.3-25.7-5.6-34.6-16.3-9.1-11.1-11.8-23.7-8.7-37.8,3.2-14.4,12-25.7,20.3-37.3,3.8-5.2,7.8-10,11.7-15.1.7-1,1.4-2.1,2-3.2-.3-.4-.6-.8-.9-1.2-1.9.9-3.8,1.7-5.6,2.8-17,10-31.7,22.8-46.2,36.1-11.1,10.2-21.9,20.7-33,31-2.9,2.8-6.3,5.2-9.6,7.4-3.1,2-6.6,2-9.5-.3-3-2.4-4-6.1-2.8-9.6,2.1-6.1,4.5-12.2,7.3-18,2.3-4.8,5.3-9.1,7.8-13.8.7-1.2,1-2.6,1.9-4.9-1.8.7-2.6,1-3.3,1.5-26.4,16.6-52.9,33.4-79.4,49.9-5,3.1-10.5,6.1-16.2,2-2.5-1.8-4.9-4.5-6-7.3-1.5-3.9-2.1-8.4-2.7-12.6-.4-3.2,0-6.5,0-9.8-.2-4.6-1.6-5.5-5.5-3.3-8.7,5.2-17.4,10.6-26.1,15.9-2.2,1.3-4.3,2.9-6.6,4-9,4.4-16.2,1.6-20.1-7.6-2-4.6-1.9-4.5-6.5-2.2-14.8,7.3-29.5,14.4-44.5,21.4-7.3,3.4-14.4,1.6-19.3-4.8-1.7-2.3-2.4-5.6-2.8-8.6-.6-4.4-.7-4.4-4.9-2.9-14.6,5.5-29,11.5-44,15.9-16.1,4.8-29.4-.8-39.2-14.5-2.3-3.2-4.2-3.4-7.4-1.6-13,7.3-27,12-41.3,16.2-12.8,3.8-23.6.6-32.3-9.5-1.9-2.1-3.1-2.2-5.3-.5-9.8,7.3-19.7,14.5-29.7,21.5-5.5,3.8-11.8,6-18.8,5.7-6.6-.3-11.5-3.3-15-9-8.2-13.1-8.9-26.6-4.2-41,5.4-17,15.1-31.5,25.1-45.8,4-5.7,8.2-11.1,12-17,1.4-2.2,3-6.1,2-7.5-2.1-2.9-4.9.2-7,1.5-15.3,9.3-27.9,21.9-40.6,34.4-14.7,14.5-27.2,30.7-39.6,47-2,2.6-4.2,5.1-6.4,7.4-2,2.2-4.1,2.2-6.4.2-4.8-4.2-6.4-12.8-3.3-20.1,2.2-4.9,5.1-9.5,7.7-14.3.6-1.1,1.2-2.1,1.1-3.8-.6.2-1.2.4-1.7.7-18.2,11.6-36.3,23.3-54.7,34.8-18.7,11.7-37.4,23.2-56.2,34.7-16,9.8-31.6,20.1-48,29.1-19.7,10.8-39.8,21.2-60.4,30.2-12.4,5.4-26,8.6-40.1,5.1-16.6-4-30.6-19.6-33.1-36.5-2-13.1,2-25,6.9-36.6,16.2-38.8,39.8-72.9,67.1-104.5,22.5-26,47.5-49.8,72.4-73.4,15.3-14.5,30-29.5,45.4-43.9,32-29.7,65-58.3,101.5-82.4,24.5-16.2,50.2-30.4,75.6-44.9,5.1-2.9,11.7-4.6,17.5-4.4,10.4.4,17.2,8.3,18.8,19.7.8,6.4.9,13,1.7,19.5.3,2.7,1.2,5.5,2.7,7.9,2.1,3.3,2,6.1-.7,8.8-5.4,5.4-10.8,10.8-16.3,15.9-23.5,21.6-44.5,45.3-62.2,72-3.7,5.5-7.9,10.7-12.3,15.7-3.8,4.4-6.8,4.8-10.3,2.5-2.9-2-4.2-6.4-2-10.7,4-8,8.5-15.7,13-23.5,12.5-21.6,29-39.9,46.2-57.8,6.2-6.5,11.5-14,16.6-21.5,3.7-5.4,4.2-11.9,3.8-18.4-.3-4.9-1.9-6-6.1-3.6-9.5,5.3-19.3,10.3-28.1,16.5-27.4,19.2-55.1,38-81.4,58.5-25,19.4-48.7,40.5-72.6,61.2-17.3,15-34.6,30.3-50.9,46.3-21.7,21.3-43.2,43-63.6,65.4-10,11.1-18.1,24.1-26.3,36.7-11.1,17.2-21.7,34.7-31.9,52.5-6.2,10.8-9.2,22.8-10.5,35.3-.9,8.5,6.1,16.9,14.9,16.7,8.6-.2,16.3-2.9,23.7-6.6,11.5-5.8,22.8-12.1,34-18.4,25-13.9,49.8-27.7,74.6-41.8,31.1-17.7,61.8-35.7,91.6-55.5,29.5-19.6,57.8-40.8,83.6-64.8,14.7-13.7,27.9-29,41.1-44.1,19.5-22.5,38.7-45.2,57.3-68.4,13.4-16.6,25-34.5,34-54,.7-1.5,2.7-2.6,4.1-3.8,1.3,1.6,3.3,3,3.8,4.8,2,7.8,1.4,15.6-1.2,23.2-5.1,14.9-13.7,28-23,40.6-21,28.8-44.2,55.8-68,82.3-1,1.1-1.7,2.4-2.5,3.7l.9.9c1.9-1.2,3.6-2.5,5.5-3.6,7.3-4.1,14.5-8.3,22.1-11.9,5.5-2.7,10.8-.7,14.8,3.4,4.4,4.3,3.6,9.9,1.1,14.4-5.5,10-11.5,19.7-17.9,29.1-15.6,23-30.9,46.1-39.6,72.8-1.3,4.1-1.5,8.7-1.4,13.1,0,3.6,2.9,5.1,6.4,4.3,2-.4,4.1-1,5.7-2,13.9-8.2,27.2-17.4,38.1-29.1,5.5-5.9,9.1-13.5,12.9-20.6,15.9-29.3,37.8-53.3,64.2-73.3,2.9-2.2,6.3-4.8,10-2.4,4.6,2.9,7.4,7.5,8,13.1,1.3,12.5-4.6,22.4-11.8,31.6-13,16.6-26.7,32.6-42.8,46.3-8.6,7.3-17.5,14.4-26.2,21.5-3.9,3.2-3.8,6.1,1,7.5,3.6,1.1,8,1.4,11.5.3,11.2-3.3,22-7.5,33-11.3,2.9-1.1,5.9-2.1,8.8-3.3,6.9-2.4,12-6.4,15.5-13.2,5.5-10.4,11.4-20.7,18.1-30.5,10.7-15.5,21.8-30.8,33.4-45.7,4.1-5.2,10-9.1,15.4-13.1,11.5-8.6,23.3.7,25.6,10.9,2,9,.2,17.8-4.1,25.6-8.2,14.8-17.9,28.6-31.6,38.9-12.6,9.3-25.4,18.1-38.3,26.9-3.1,2.1-5,4.4-3.9,8,1.1,3.7,3.8,5.7,7.7,5,6.2-1.1,12.5-2.4,18.5-4.2,13-3.9,25.4-9.1,37.7-15.2,12.6-6.4,23.2-14.8,30.6-26.7,12-19.3,26.3-36.5,41.1-53.7,11.1-12.8,22.7-25.2,34-37.8.4-.5.7-1.1,1.9-2.9-5.2.3-9.4.3-13.5,1-20.1,3.2-40.1,6.6-60.2,9.9-6.3,1-12.6,1.3-17.4-4.2-1.1-1.3-2.2-2.8-2.9-4.4-2-4.8-1-7.2,4.1-8.1,11.9-2,23.8-3.6,35.7-5.5,25.1-4,50.2-8.5,75.5-11.7,7.8-1,13.2-4.5,18.7-9.2,13.5-11.7,25.3-25,36.7-38.7.9-1.1,1.6-2.3,2.7-3,1.5-1.1,4.2-2.9,4.9-2.4,1.7,1.3,3.3,3.6,3.8,5.7,1.1,5.1-1.7,9.5-4.4,13.6-5.1,7.8-10.7,15.4-16.1,23.1-.7,1-1.2,2.2-2,3.8,3.6,0,6.4,0,9.2,0,29.6-1.2,59.1-3.8,88.7-3.3,25.9.5,51.9-.4,77.8.5,7.6.2,12.1-2.1,16.5-7.3,8.2-9.6,16.6-19.1,24.9-28.5,2.3-2.6,4.7-5.3,8.6-4,2.4.8,5,8.2,3.7,11.3-1.6,4.1-3.8,8.1-6.2,11.7-2.9,4.2-6.4,8.1-9.6,12.2-.8,1-1.4,2.1-2.7,4.3h0l.2.4h0ZM1351.9-575.8c-1.9-.7-2.7-1.1-3.6-1.1-9.3-.6-18.7-1.7-28.1-1.5-21.7.5-43.4,1.5-65.1,2.5-12.3.6-24.6,1.5-37,2.6-19.6,1.9-39.2,4-58.6,6.3-3.1.3-6.7,1.1-9,2.9-10.8,8.7-21.9,17.1-31.6,27-16.6,17-32.5,34.7-47.7,52.9-9.5,11.3-17.7,23.7-25.4,36.3-3.5,5.8-4.9,13.1-6.4,19.9-.8,3.8,1.7,5.5,5.5,4.5,2.4-.6,4.7-1.3,6.9-2.4,11-5.9,22-11.7,32.9-17.9,5.5-3,11.2-5.9,15.9-9.8,21.6-17.7,43-35.8,64.4-53.7,8.6-7.1,17.9-12.8,28.7-15.7,7.3-2,10.4-.7,14.9,5.4.7.9,2.7,1.9,3.4,1.5,3.7-1.9,5.6,0,7.4,2.8,3.3,4.9,4.2,10,.7,15.2-2,2.9-3.8,6-6,8.6-8.8,10.7-17.9,21.1-26.7,31.9-7,8.6-14,17.3-20.6,26.3-1.5,2.2-2.8,6.8-1.5,8.4,2.4,3.3,6.4,1.2,9.2-.5,12.2-7.3,24.5-14.7,36.4-22.4,12.2-7.9,24-16.4,36.1-24.5,21.3-14.2,39.6-31.6,56.8-50.6,11.6-12.8,22.8-25.9,34.2-38.8,4.5-5.1,8.8-10.2,13.8-16h0ZM957.3-459.5c1.1,0,1.6.2,1.9,0,2.8-2,5.5-3.8,8.2-5.9,15.4-11.7,29.1-25.2,39.4-41.8,2.2-3.6,3.4-7.9,4.3-12.1.7-3.8-1.3-5.1-5.1-4.3-6.1,1.1-9.7,5.8-13.5,10-13.8,15.3-24.4,32.8-34.5,50.6-.5.8-.5,2-.8,3.3h0v.2h0ZM1120.1-446.2c.2.3.4.7.6,1.1,1.9-.3,3.8-.4,5.7-.9,8.9-2.4,15.6-8.4,22.7-13.7,18-13.6,33.9-29.6,49.8-45.5s1.5-1.7,2.3-2.6c-.2-.4-.3-.9-.5-1.3-2.2.4-4.7.2-6.5,1.2-6.5,3.8-13,7.8-19,12.2-18.9,13.9-36.5,29.4-52.6,46.6-.8.9-1.5,2-2.3,2.9h0ZM879.1-465.2c.4.2.7.4,1.1.7,1-.7,2-1.3,2.9-2,12.6-10.2,24.1-21.5,33.7-34.6,3-4.2,5.5-8.6,8.2-13.1.4-.8-.2-2.2-.3-3.3-1,.2-2,.2-3,.6-.5.2-.9.7-1.3,1-15.7,13.6-29.5,28.7-39.8,46.9-.7,1.2-1,2.6-1.4,3.9h0Z"/>
    </g>
    <text class="st1" transform="translate(13.7 -649.3) scale(.7)"><tspan x="0" y="0">PROJECT</tspan></text>
  </g>
  <g id="Layer_2-21" data-name="Layer_2-2">
    <g id="artwork1" data-name="artwork">
      <path class="st0" d="M1365.5,204.5c10.2.9,19.3,1.7,28.3,2.4,17.2,1.4,34.3,2.5,51.6,4,15,1.3,30,2.3,44.9,4.4,11.1,1.5,22,4.4,32.9,7.2,5.1,1.3,8.3,9.9,5.9,14.4-.7,1.1-2.8,2.1-4.2,2.1-4.9,0-9.8-.2-14.6-1-15.3-2.3-30.4-5.1-45.8-7.3-12.7-1.7-25.6-2.9-38.4-3.9-17.7-1.5-35.4-2.8-53.2-3.9-7-.5-14.1-.4-21.2-.2-1.4,0-3.2,1-4.1,2-13,15-26,29.9-38.7,45.2-9.4,11.3-18.4,22.8-27.4,34.4-3,3.8-5.4,8.2-7.9,12.3-.7,1.1-.9,2.4-1.3,3.5.3.3.7.7,1,1.1,4.6-2.4,9.2-4.6,13.5-7.4,16.2-10.3,32.2-20.7,48.4-31.1,12.2-7.8,25.6-13,39.6-17,5.3-1.5,8.5.2,10.8,5.2,3.3,7.2,2.7,12.4-3.3,17.6-12.7,11.3-26,21.8-38.7,33.1-11.1,10-21.8,20.5-32.4,30.9-6.4,6.3-10.4,14.2-13.7,22.4-5.5,13.9,4,28.3,18.9,28.1,11.3,0,22.5-.8,33.6-2.4,14.6-2,29.1-4.7,43.6-7.9,17-3.8,33.9-8.7,51-12.3,24.6-5.1,49.2-9.7,73.8-14,20-3.5,40.1-6.6,60.2-9.5,14-2,28.2-3.5,42.3-5.1,26.4-2.9,53-4.2,79.7-3.8,17,.2,33.9,1.2,50.8,2.4,16.1,1.1,32.1,2.8,48.1,4.7,31.2,3.8,62.2,9,92.5,17.9,14.9,4.4,30.3,7.4,45.1,12.3,25,8.3,49.9,16.9,74.3,26.8,24.9,10.1,48.6,22.8,71.9,36.5,16.9,9.9,33.9,19.4,50.8,29.3,4.1,2.4,8,5.2,11.7,8,6.5,4.9,7.3,10.1,2.5,16.8-1,1.4-2.4,2.5-3.7,3.9-1.3-1-2.4-1.7-3.5-2.6-15.6-13.6-33.2-24-51.1-34.1-11.8-6.6-23.7-13.4-35.9-19.2-30.9-14.7-62.3-28.1-95.1-38.2-17.5-5.4-34.9-11-52.7-15.4-21-5.3-42.3-10-63.5-13.9-21.9-4-43.9-6.8-65.9-9.8-17.6-2.4-35.2-4.7-52.9-6.2-21.9-1.8-44-.9-65.9,1.1-12.2,1.1-24.4,1.5-36.5,2.6-14.2,1.4-28.3,2.9-42.4,5.1-18.6,2.9-37.2,6.2-55.6,9.8-26.2,5.1-52.4,10.5-78.5,16.1-20.4,4.3-40.6,9.6-61.2,13.5-17.3,3.2-34.9,4.6-52.3,7.3-15.3,2.3-25.7-5.6-34.6-16.3-9.1-11.1-11.8-23.7-8.7-37.8,3.2-14.4,12-25.7,20.3-37.3,3.8-5.2,7.8-10,11.7-15.1.7-1,1.4-2.1,2-3.2-.3-.4-.6-.8-.9-1.2-1.9.9-3.8,1.7-5.6,2.8-17,10-31.7,22.8-46.2,36.1-11.1,10.2-21.9,20.7-33,31-2.9,2.8-6.3,5.2-9.6,7.4-3.1,2-6.6,2-9.5-.3-3-2.4-4-6.1-2.8-9.6,2.1-6.1,4.5-12.2,7.3-18,2.3-4.8,5.3-9.1,7.8-13.8.7-1.2,1-2.6,1.9-4.9-1.8.7-2.6,1-3.3,1.5-26.4,16.6-52.9,33.4-79.4,49.9-5,3.1-10.5,6.1-16.2,2-2.5-1.8-4.9-4.5-6-7.3-1.5-3.9-2.1-8.4-2.7-12.6-.4-3.2,0-6.5,0-9.8-.2-4.6-1.6-5.5-5.5-3.3-8.7,5.2-17.4,10.6-26.1,15.9-2.2,1.3-4.3,2.9-6.6,4-9,4.4-16.2,1.6-20.1-7.6-2-4.6-1.9-4.5-6.5-2.2-14.8,7.3-29.5,14.4-44.5,21.4-7.3,3.4-14.4,1.6-19.3-4.8-1.7-2.3-2.4-5.6-2.8-8.6-.6-4.4-.7-4.4-4.9-2.9-14.6,5.5-29,11.5-44,15.9-16.1,4.8-29.4-.8-39.2-14.5-2.3-3.2-4.2-3.4-7.4-1.6-13,7.3-27,12-41.3,16.2-12.8,3.8-23.6.6-32.3-9.5-1.9-2.1-3.1-2.2-5.3-.5-9.8,7.3-19.7,14.5-29.7,21.5-5.5,3.8-11.8,6-18.8,5.7-6.6-.3-11.5-3.3-15-9-8.2-13.1-8.9-26.6-4.2-41,5.4-17,15.1-31.5,25.1-45.8,4-5.7,8.2-11.1,12-17,1.4-2.2,3-6.1,2-7.5-2.1-2.9-4.9.2-7,1.5-15.3,9.3-27.9,21.9-40.6,34.4-14.7,14.5-27.2,30.7-39.6,47-2,2.6-4.2,5.1-6.4,7.4-2,2.2-4.1,2.2-6.4.2-4.8-4.2-6.4-12.8-3.3-20.1,2.2-4.9,5.1-9.5,7.7-14.3.6-1.1,1.2-2.1,1.1-3.8-.6.2-1.2.4-1.7.7-18.2,11.6-36.3,23.3-54.7,34.8-18.7,11.7-37.4,23.2-56.2,34.7-16,9.8-31.6,20.1-48,29.1-19.7,10.8-39.8,21.2-60.4,30.2-12.4,5.4-26,8.6-40.1,5.1-16.6-4-30.6-19.6-33.1-36.5-2-13.1,2-25,6.9-36.6,16.2-38.8,39.8-72.9,67.1-104.5,22.5-26,47.5-49.8,72.4-73.4,15.3-14.5,30-29.5,45.4-43.9,32-29.7,65-58.3,101.5-82.4,24.5-16.2,50.2-30.4,75.6-44.9,5.1-2.9,11.7-4.6,17.5-4.4,10.4.4,17.2,8.3,18.8,19.7.8,6.4.9,13,1.7,19.5.3,2.7,1.2,5.5,2.7,7.9,2.1,3.3,2,6.1-.7,8.8-5.4,5.4-10.8,10.8-16.3,15.9-23.5,21.6-44.5,45.3-62.2,72-3.7,5.5-7.9,10.7-12.3,15.7-3.8,4.4-6.8,4.8-10.3,2.5-2.9-2-4.2-6.4-2-10.7,4-8,8.5-15.7,13-23.5,12.5-21.6,29-39.9,46.2-57.8,6.2-6.5,11.5-14,16.6-21.5,3.7-5.4,4.2-11.9,3.8-18.4-.3-4.9-1.9-6-6.1-3.6-9.5,5.3-19.3,10.3-28.1,16.5-27.4,19.2-55.1,38-81.4,58.5-25,19.4-48.7,40.5-72.6,61.2-17.3,15-34.6,30.3-50.9,46.3-21.7,21.3-43.2,43-63.6,65.4-10,11.1-18.1,24.1-26.3,36.7-11.1,17.2-21.7,34.7-31.9,52.5-6.2,10.8-9.2,22.8-10.5,35.3-.9,8.5,6.1,16.9,14.9,16.7,8.6-.2,16.3-2.9,23.7-6.6,11.5-5.8,22.8-12.1,34-18.4,25-13.9,49.8-27.7,74.6-41.8,31.1-17.7,61.8-35.7,91.6-55.5,29.5-19.6,57.8-40.8,83.6-64.8,14.7-13.7,27.9-29,41.1-44.1,19.5-22.5,38.7-45.2,57.3-68.4,13.4-16.6,25-34.5,34-54,.7-1.5,2.7-2.6,4.1-3.8,1.3,1.6,3.3,3,3.8,4.8,2,7.8,1.4,15.6-1.2,23.2-5.1,14.9-13.7,28-23,40.6-21,28.8-44.2,55.8-68,82.3-1,1.1-1.7,2.4-2.5,3.7l.9.9c1.9-1.2,3.6-2.5,5.5-3.6,7.3-4.1,14.5-8.3,22.1-11.9,5.5-2.7,10.8-.7,14.8,3.4,4.4,4.3,3.6,9.9,1.1,14.4-5.5,10-11.5,19.7-17.9,29.1-15.6,23-30.9,46.1-39.6,72.8-1.3,4.1-1.5,8.7-1.4,13.1,0,3.6,2.9,5.1,6.4,4.3,2-.4,4.1-1,5.7-2,13.9-8.2,27.2-17.4,38.1-29.1,5.5-5.9,9.1-13.5,12.9-20.6,15.9-29.3,37.8-53.3,64.2-73.3,2.9-2.2,6.3-4.8,10-2.4,4.6,2.9,7.4,7.5,8,13.1,1.3,12.5-4.6,22.4-11.8,31.6-13,16.6-26.7,32.6-42.8,46.3-8.6,7.3-17.5,14.4-26.2,21.5-3.9,3.2-3.8,6.1,1,7.5,3.6,1.1,8,1.4,11.5.3,11.2-3.3,22-7.5,33-11.3,2.9-1.1,5.9-2.1,8.8-3.3,6.9-2.4,12-6.4,15.5-13.2,5.5-10.4,11.4-20.7,18.1-30.5,10.7-15.5,21.8-30.8,33.4-45.7,4.1-5.2,10-9.1,15.4-13.1,11.5-8.6,23.3.7,25.6,10.9,2,9,.2,17.8-4.1,25.6-8.2,14.8-17.9,28.6-31.6,38.9-12.6,9.3-25.4,18.1-38.3,26.9-3.1,2.1-5,4.4-3.9,8,1.1,3.7,3.8,5.7,7.7,5,6.2-1.1,12.5-2.4,18.5-4.2,13-3.9,25.4-9.1,37.7-15.2,12.6-6.4,23.2-14.8,30.6-26.7,12-19.3,26.3-36.5,41.1-53.7,11.1-12.8,22.7-25.2,34-37.8.4-.5.7-1.1,1.9-2.9-5.2.3-9.4.3-13.5,1-20.1,3.2-40.1,6.6-60.2,9.9-6.3,1-12.6,1.3-17.4-4.2-1.1-1.3-2.2-2.8-2.9-4.4-2-4.8-1-7.2,4.1-8.1,11.9-2,23.8-3.6,35.7-5.5,25.1-4,50.2-8.5,75.5-11.7,7.8-1,13.2-4.5,18.7-9.2,13.5-11.7,25.3-25,36.7-38.7.9-1.1,1.6-2.3,2.7-3,1.5-1.1,4.2-2.9,4.9-2.4,1.7,1.3,3.3,3.6,3.8,5.7,1.1,5.1-1.7,9.5-4.4,13.6-5.1,7.8-10.7,15.4-16.1,23.1-.7,1-1.2,2.2-2,3.8,3.6,0,6.4,0,9.2,0,29.6-1.2,59.1-3.8,88.7-3.3,25.9.5,51.9-.4,77.8.5,7.6.2,12.1-2.1,16.5-7.3,8.2-9.6,16.6-19.1,24.9-28.5,2.3-2.6,4.7-5.3,8.6-4,2.4.8,5,8.2,3.7,11.3-1.6,4.1-3.8,8.1-6.2,11.7-2.9,4.2-6.4,8.1-9.6,12.2-.8,1-1.4,2.1-2.7,4.3h0l.2.4h0ZM1326,223.3c-1.9-.7-2.7-1.1-3.6-1.1-9.3-.6-18.7-1.7-28.1-1.5-21.7.5-43.4,1.5-65.1,2.5-12.3.6-24.6,1.5-37,2.6-19.6,1.9-39.2,4-58.6,6.3-3.1.3-6.7,1.1-9,2.9-10.8,8.7-21.9,17.1-31.6,27-16.6,17-32.5,34.7-47.7,52.9-9.5,11.3-17.7,23.7-25.4,36.3-3.5,5.8-4.9,13.1-6.4,19.9-.8,3.8,1.7,5.5,5.5,4.5,2.4-.6,4.7-1.3,6.9-2.4,11-5.9,22-11.7,32.9-17.9,5.5-3,11.2-5.9,15.9-9.8,21.6-17.7,43-35.8,64.4-53.7,8.6-7.1,17.9-12.8,28.7-15.7,7.3-2,10.4-.7,14.9,5.4.7.9,2.7,1.9,3.4,1.5,3.7-1.9,5.6,0,7.4,2.8,3.3,4.9,4.2,10,.7,15.2-2,2.9-3.8,6-6,8.6-8.8,10.7-17.9,21.1-26.7,31.9-7,8.6-14,17.3-20.6,26.3-1.5,2.2-2.8,6.8-1.5,8.4,2.4,3.3,6.4,1.2,9.2-.5,12.2-7.3,24.5-14.7,36.4-22.4,12.2-7.9,24-16.4,36.1-24.5,21.3-14.2,39.6-31.6,56.8-50.6,11.6-12.8,22.8-25.9,34.2-38.8,4.5-5.1,8.8-10.2,13.8-16h0ZM931.4,339.6c1.1,0,1.6.2,1.9,0,2.8-2,5.5-3.8,8.2-5.9,15.4-11.7,29.1-25.2,39.4-41.8,2.2-3.6,3.4-7.9,4.3-12.1.7-3.8-1.3-5.1-5.1-4.3-6.1,1.1-9.7,5.8-13.5,10-13.8,15.3-24.4,32.8-34.5,50.6-.5.8-.5,2-.8,3.3h0v.2h0ZM1094.1,352.9c.2.3.4.7.6,1.1,1.9-.3,3.8-.4,5.7-.9,8.9-2.4,15.6-8.4,22.7-13.7,18-13.6,33.9-29.6,49.8-45.5,15.9-15.9,1.5-1.7,2.3-2.6-.2-.4-.3-.9-.5-1.3-2.2.4-4.7.2-6.5,1.2-6.5,3.8-13,7.8-19,12.2-18.9,13.9-36.5,29.4-52.6,46.6-.8.9-1.5,2-2.3,2.9h0ZM853.2,333.9c.4.2.7.4,1.1.7,1-.7,2-1.3,2.9-2,12.6-10.2,24.1-21.5,33.7-34.6,3-4.2,5.5-8.6,8.2-13.1.4-.8-.2-2.2-.3-3.3-1,.2-2,.2-3,.6-.5.2-.9.7-1.3,1-15.7,13.6-29.5,28.7-39.8,46.9-.7,1.2-1,2.6-1.4,3.9h0Z"/>
    </g>
    <g>
      <path class="st0" d="M-5,55.7h41.3c10.9,0,19.1,3.2,24.6,8.8,5.3,5.4,8.4,12.8,8.4,21.4,0,17.8-11.7,29.7-31.4,29.7H14.7v34.1H-5V55.7ZM14.7,100.2h19.7c10,0,15.3-5.5,15.3-14.1s-5.5-13.8-15-13.8H14.7v27.9Z"/>
      <path class="st0" d="M78.4,55.7h43.1c18.1,0,30.2,10.5,30.2,26.2s-5.1,19.5-17.2,22.8v.4c8.7,2.5,13.2,7.5,14.3,18.9,1.3,13.3.8,23.4,4.1,24.9v.9h-18.3c-2.4-1.1-2.6-11.6-3.4-21.7-.8-10.3-6.6-16-18.4-16h-15.4v37.7h-19.1V55.7ZM97.4,97.3h20.3c10.4,0,15.5-5.4,15.5-12.9s-4.9-13.3-15-13.3h-20.8v26.2Z"/>
      <path class="st0" d="M160.5,102.9c0-28.1,17.6-49.1,45.4-49.1s45.2,20.9,45.2,49.1-17.5,48.9-45.2,48.9-45.4-20.8-45.4-48.9ZM231.6,102.9c0-18.8-8.4-33.4-25.6-33.4s-26,14.6-26,33.4,8.8,33.3,26,33.3,25.6-14.6,25.6-33.3Z"/>
      <path class="st0" d="M257.9,124.1v-9.3h17.1v8.2c0,9.5,4.3,13.2,12.1,13.2s11.3-4.6,11.3-12.9V55.7h19.1v67.6c0,16-9.3,28.1-28.8,28.1s-30.8-8.9-30.8-27.4Z"/>
      <path class="st0" d="M333.3,55.7h69.2v16h-50.1v21h43.9v15.7h-43.9v25.4h50.5v15.9h-69.6V55.7Z"/>
      <path class="st0" d="M409.5,103.1c0-27.9,17.4-49.2,45.1-49.2s36.8,13.8,38.8,31.7h-18.9c-1.7-9.5-8.8-15.7-19.9-15.7-17.4,0-25.6,14.5-25.6,33.1s10,33,25.8,33,19.1-6.7,20.3-16.6h18.7c-.5,8.3-4.1,16.3-10.4,22.2-6.4,6-15.5,10-28.5,10-26.4,0-45.2-20.4-45.2-48.7Z"/>
      <path class="st0" d="M498.9,55.7h75.6v16h-28.3v78h-19.1v-78h-28.3v-16Z"/>
    </g>
  </g>
</svg>